<?xml version="1.0" encoding="UTF-8"?>
<svg xmlns="http://www.w3.org/2000/svg" viewBox="0 0 315 100">
  <defs>
    <linearGradient id="grad40" x1="0%" y1="0%" x2="100%" y2="100%">
      <stop offset="0%" style="stop-color:#8B0000;stop-opacity:1" />
      <stop offset="100%" style="stop-color:#FF6347;stop-opacity:1" />
    </linearGradient>
  </defs>
  
  <!-- Icon (skaliert und zentriert) -->
  <g transform="translate(5, 5) scale(0.42)">
    <g>
      <path fill="url(#grad40)" d="M141.52,187.81c-2.87,6.61-5.6,12.87-8.3,19.14-1.37,3.18-2.92,6.06-7.07,5.96-4.33-.1-6.67-2.76-8.03-6.4-3.24-8.74-6.32-17.54-9.47-26.31-11.21-31.17-22.44-62.33-33.6-93.52-1.36-3.8-4.02-7.9-.24-11.64,3.58-3.54,7.58-1.12,11.23.19,39.64,14.22,79.26,28.53,118.89,42.79,2.57.92,4.91,2.06,6.37,4.51,2.63,4.41,1.25,8.3-4.16,10.73-13.82,6.21-27.55,12.67-41.62,18.26-7.25,2.88-11.81,7.15-14.42,14.48-2.61,7.35-6.25,14.34-9.59,21.83Z"/>
      <path fill="url(#grad40)" d="M99.59,53.25c9.9-9.9,19.58-19.49,29.16-29.17,2.85-2.88,5.74-4.28,8.9-.82,2.92,3.2,2.09,6.28-.83,9.17-9.57,9.46-19.09,18.96-28.61,28.48-2.35,2.35-4.85,3.75-7.84,1.27-3-2.48-3.71-5.41-.78-8.93Z"/>
      <path fill="url(#grad40)" d="M29.57,123.89c7.68-7.67,15.09-15.1,22.54-22.5,3.83-3.8,6.5-4.11,9.39-1.22,2.8,2.8,2.49,5.8-1.15,9.47-9.15,9.23-18.34,18.43-27.55,27.6-3.63,3.62-6.71,3.94-9.47.95-3.08-3.35-1.9-6.31,1.07-9.06,1.71-1.58,3.28-3.32,5.16-5.24Z"/>
      <path fill="url(#grad40)" d="M.34,78.03c1.58-2.46,3.7-2.72,5.91-2.72,13.44,0,26.89,0,40.33,0,4.14,0,6.79,1.79,6.63,6.21-.16,4.39-3.19,5.22-6.93,5.2-13.11-.07-26.23,0-39.34-.05-6.47-.02-7.66-1.54-6.6-8.65Z"/>
      <path fill="url(#grad40)" d="M48.68,40.75c4.34,4.4,8.38,8.59,12.49,12.73,2.74,2.77,2.92,5.63.06,8.24-2.71,2.47-5.58,2.59-8.36-.24-9.69-9.86-19.38-19.71-29.17-29.47-2.72-2.71-3.31-5.44-.63-8.26,2.83-2.99,5.75-2.65,8.65.27,5.51,5.56,11.14,11,16.98,16.73Z"/>
      <path fill="url(#grad40)" d="M85.45,16.38c0,10.49-.08,20.48.01,30.46.03,3.91-1.18,6.72-5.51,6.62-4.17-.1-5.72-2.99-5.69-6.77.09-13.8.27-27.6.42-41.4.04-3.76,2.03-5.41,5.7-5.29,3.51.11,5.1,1.94,5.06,5.39-.04,3.5,0,6.99.01,10.99Z"/>
    </g>
  </g>
  
  <!-- Text "ShortSelect" - Alles im Gradient -->
  <text x="105" y="63" font-family="'Poppins', 'Inter', 'Segoe UI', Arial, sans-serif" font-size="38" font-weight="600" fill="url(#grad40)" letter-spacing="-0.5">ShortSelect</text>
</svg>
